<mxfile host="app.diagrams.net" modified="2024-03-12T06:01:44.710Z" agent="Mozilla/5.0 (Windows NT 10.0; Win64; x64) AppleWebKit/537.36 (KHTML, like Gecko) Chrome/122.0.0.0 Safari/537.36" etag="Zw7t7ln5l57mqiv5AB5w" version="24.0.5" type="github">
  <diagram name="第 1 页" id="c18BtxupdOjtGE5lwTED">
    <mxGraphModel dx="683" dy="376" grid="1" gridSize="10" guides="1" tooltips="1" connect="1" arrows="1" fold="1" page="1" pageScale="1" pageWidth="827" pageHeight="1169" math="1" shadow="0">
      <root>
        <mxCell id="0" />
        <mxCell id="1" parent="0" />
        <mxCell id="OIU73lLJAFTmNbv0Lwg5-7" style="edgeStyle=orthogonalEdgeStyle;rounded=0;orthogonalLoop=1;jettySize=auto;html=1;exitX=0.5;exitY=1;exitDx=0;exitDy=0;entryX=0.5;entryY=0;entryDx=0;entryDy=0;endSize=1;startSize=1;" edge="1" parent="1" source="OIU73lLJAFTmNbv0Lwg5-1" target="OIU73lLJAFTmNbv0Lwg5-2">
          <mxGeometry relative="1" as="geometry" />
        </mxCell>
        <mxCell id="OIU73lLJAFTmNbv0Lwg5-1" value="" style="ellipse;whiteSpace=wrap;html=1;aspect=fixed;fillColor=#fff2cc;strokeColor=#d6b656;" vertex="1" parent="1">
          <mxGeometry x="170" y="90" width="10" height="10" as="geometry" />
        </mxCell>
        <mxCell id="OIU73lLJAFTmNbv0Lwg5-8" style="edgeStyle=orthogonalEdgeStyle;rounded=0;orthogonalLoop=1;jettySize=auto;html=1;exitX=0.5;exitY=1;exitDx=0;exitDy=0;entryX=0.5;entryY=0;entryDx=0;entryDy=0;endSize=1;startSize=1;" edge="1" parent="1" source="OIU73lLJAFTmNbv0Lwg5-2" target="OIU73lLJAFTmNbv0Lwg5-4">
          <mxGeometry relative="1" as="geometry" />
        </mxCell>
        <mxCell id="OIU73lLJAFTmNbv0Lwg5-17" style="edgeStyle=orthogonalEdgeStyle;rounded=0;orthogonalLoop=1;jettySize=auto;html=1;exitX=0;exitY=0.5;exitDx=0;exitDy=0;entryX=0;entryY=0.5;entryDx=0;entryDy=0;endSize=2;" edge="1" parent="1" source="OIU73lLJAFTmNbv0Lwg5-2" target="OIU73lLJAFTmNbv0Lwg5-11">
          <mxGeometry relative="1" as="geometry" />
        </mxCell>
        <mxCell id="OIU73lLJAFTmNbv0Lwg5-2" value="&lt;p&gt;&lt;font face=&quot;Times New Roman&quot; style=&quot;font-size: 15px;&quot;&gt;Channel Split&lt;/font&gt;&lt;/p&gt;" style="rounded=0;whiteSpace=wrap;html=1;" vertex="1" parent="1">
          <mxGeometry x="128.74" y="110" width="92.5" height="20" as="geometry" />
        </mxCell>
        <mxCell id="OIU73lLJAFTmNbv0Lwg5-9" style="edgeStyle=orthogonalEdgeStyle;rounded=0;orthogonalLoop=1;jettySize=auto;html=1;exitX=0.5;exitY=1;exitDx=0;exitDy=0;entryX=0.5;entryY=0;entryDx=0;entryDy=0;endSize=1;" edge="1" parent="1" source="OIU73lLJAFTmNbv0Lwg5-4" target="OIU73lLJAFTmNbv0Lwg5-5">
          <mxGeometry relative="1" as="geometry" />
        </mxCell>
        <mxCell id="OIU73lLJAFTmNbv0Lwg5-4" value="&lt;p style=&quot;line-height: 0%;&quot;&gt;&lt;font face=&quot;Times New Roman&quot;&gt;$$1\times1$$ &lt;span style=&quot;font-size: 15px;&quot;&gt;Conv&lt;/span&gt;&lt;/font&gt;&lt;/p&gt;" style="rounded=0;whiteSpace=wrap;html=1;fillColor=#f8cecc;strokeColor=#330000;align=center;" vertex="1" parent="1">
          <mxGeometry x="151.07999999999998" y="140" width="47.81" height="40" as="geometry" />
        </mxCell>
        <mxCell id="OIU73lLJAFTmNbv0Lwg5-10" style="edgeStyle=orthogonalEdgeStyle;rounded=0;orthogonalLoop=1;jettySize=auto;html=1;exitX=0.5;exitY=1;exitDx=0;exitDy=0;entryX=0.5;entryY=0;entryDx=0;entryDy=0;startSize=1;endSize=1;" edge="1" parent="1" source="OIU73lLJAFTmNbv0Lwg5-5" target="OIU73lLJAFTmNbv0Lwg5-6">
          <mxGeometry relative="1" as="geometry" />
        </mxCell>
        <mxCell id="OIU73lLJAFTmNbv0Lwg5-5" value="&lt;p style=&quot;line-height: 0%; font-size: 15px;&quot;&gt;&lt;font face=&quot;Times New Roman&quot;&gt;$$3\times3$$ DWConv&lt;/font&gt;&lt;/p&gt;" style="rounded=0;whiteSpace=wrap;html=1;fillColor=#fff2cc;strokeColor=#330000;align=center;spacing=2;" vertex="1" parent="1">
          <mxGeometry x="127.17999999999999" y="200" width="95.62" height="40" as="geometry" />
        </mxCell>
        <mxCell id="OIU73lLJAFTmNbv0Lwg5-12" style="edgeStyle=orthogonalEdgeStyle;rounded=0;orthogonalLoop=1;jettySize=auto;html=1;exitX=0.5;exitY=1;exitDx=0;exitDy=0;entryX=0.5;entryY=0;entryDx=0;entryDy=0;endSize=1;" edge="1" parent="1" source="OIU73lLJAFTmNbv0Lwg5-6" target="OIU73lLJAFTmNbv0Lwg5-11">
          <mxGeometry relative="1" as="geometry" />
        </mxCell>
        <mxCell id="OIU73lLJAFTmNbv0Lwg5-6" value="&lt;p style=&quot;line-height: 0%;&quot;&gt;&lt;font face=&quot;Times New Roman&quot;&gt;$$1\times1$$ &lt;span style=&quot;font-size: 15px;&quot;&gt;Conv&lt;/span&gt;&lt;/font&gt;&lt;/p&gt;" style="rounded=0;whiteSpace=wrap;html=1;fillColor=#f8cecc;strokeColor=#330000;align=center;" vertex="1" parent="1">
          <mxGeometry x="153.59" y="260" width="42.81" height="40" as="geometry" />
        </mxCell>
        <mxCell id="OIU73lLJAFTmNbv0Lwg5-14" style="edgeStyle=orthogonalEdgeStyle;rounded=0;orthogonalLoop=1;jettySize=auto;html=1;exitX=0.5;exitY=1;exitDx=0;exitDy=0;entryX=0.5;entryY=0;entryDx=0;entryDy=0;endSize=1;" edge="1" parent="1" source="OIU73lLJAFTmNbv0Lwg5-11" target="OIU73lLJAFTmNbv0Lwg5-13">
          <mxGeometry relative="1" as="geometry" />
        </mxCell>
        <mxCell id="OIU73lLJAFTmNbv0Lwg5-11" value="&lt;p&gt;&lt;font face=&quot;Times New Roman&quot; style=&quot;font-size: 15px;&quot;&gt;Concat&lt;/font&gt;&lt;/p&gt;" style="rounded=0;whiteSpace=wrap;html=1;" vertex="1" parent="1">
          <mxGeometry x="137.5" y="320" width="75" height="20" as="geometry" />
        </mxCell>
        <mxCell id="OIU73lLJAFTmNbv0Lwg5-16" style="edgeStyle=orthogonalEdgeStyle;rounded=0;orthogonalLoop=1;jettySize=auto;html=1;exitX=0.5;exitY=1;exitDx=0;exitDy=0;entryX=0.5;entryY=0;entryDx=0;entryDy=0;endSize=1;" edge="1" parent="1" source="OIU73lLJAFTmNbv0Lwg5-13" target="OIU73lLJAFTmNbv0Lwg5-15">
          <mxGeometry relative="1" as="geometry" />
        </mxCell>
        <mxCell id="OIU73lLJAFTmNbv0Lwg5-13" value="&lt;p&gt;&lt;span style=&quot;font-size: 15px;&quot;&gt;&lt;font face=&quot;Times New Roman&quot;&gt;Channel Shuffle&lt;/font&gt;&lt;/span&gt;&lt;/p&gt;" style="rounded=0;whiteSpace=wrap;html=1;" vertex="1" parent="1">
          <mxGeometry x="123.73" y="350" width="102.5" height="20" as="geometry" />
        </mxCell>
        <mxCell id="OIU73lLJAFTmNbv0Lwg5-15" value="" style="ellipse;whiteSpace=wrap;html=1;aspect=fixed;fillColor=#fff2cc;strokeColor=#d6b656;" vertex="1" parent="1">
          <mxGeometry x="169.99" y="380" width="10" height="10" as="geometry" />
        </mxCell>
      </root>
    </mxGraphModel>
  </diagram>
</mxfile>
